HIERARCHY
ROOT Hips
{
	OFFSET 0.000000 0.000000 0.000000
	CHANNELS 6 Xposition Yposition Zposition Zrotation Yrotation Xrotation 
	JOINT LHipJoint
	{
		OFFSET 0.000000 0.000000 0.000000
		CHANNELS 3 Zrotation Yrotation Xrotation
		JOINT LeftUpLeg
		{
			OFFSET 1.363060 -1.794630 0.839290
			CHANNELS 3 Zrotation Yrotation Xrotation
			JOINT LeftLeg
			{
				OFFSET 2.448110 -6.726130 0.000000
				CHANNELS 3 Zrotation Yrotation Xrotation
				JOINT LeftFoot
				{
					OFFSET 2.562200 -7.039590 0.000000
					CHANNELS 3 Zrotation Yrotation Xrotation
					JOINT LeftToeBase
					{
						OFFSET 0.157640 -0.433110 2.322550
						CHANNELS 3 Zrotation Yrotation Xrotation
						End Site
						{
							OFFSET 0.000000 0.000000 0.000000
						}
					}
				}
			}
		}
	}
	JOINT RHipJoint
	{
		OFFSET 0.000000 0.000000 0.000000
		CHANNELS 3 Zrotation Yrotation Xrotation
		JOINT RightUpLeg
		{
			OFFSET -1.305520 -1.794630 0.839290
			CHANNELS 3 Zrotation Yrotation Xrotation
			JOINT RightLeg
			{
				OFFSET -2.542530 -6.985550 0.000000
				CHANNELS 3 Zrotation Yrotation Xrotation
				JOINT RightFoot
				{
					OFFSET -2.568260 -7.056230 0.000000
					CHANNELS 3 Zrotation Yrotation Xrotation
					JOINT RightToeBase
					{
						OFFSET -0.164730 -0.452590 2.363150
						CHANNELS 3 Zrotation Yrotation Xrotation
						End Site
						{
							OFFSET 0.000000 0.000000 0.000000
						}
					}
				}
			}
		}
	}
	JOINT LowerBack
	{
		OFFSET 0.000000 0.000000 0.000000
		CHANNELS 3 Zrotation Yrotation Xrotation
		JOINT Spine
		{
			OFFSET 0.028270 2.035590 -0.193380
			CHANNELS 3 Zrotation Yrotation Xrotation
			JOINT Spine1
			{
				OFFSET 0.056720 2.048850 -0.042750
				CHANNELS 3 Zrotation Yrotation Xrotation
				JOINT Neck
				{
					OFFSET 0.000000 0.000000 0.000000
					CHANNELS 3 Zrotation Yrotation Xrotation
					JOINT Neck1
					{
						OFFSET -0.054170 1.746240 0.172020
						CHANNELS 3 Zrotation Yrotation Xrotation
						JOINT Head
						{
							OFFSET 0.104070 1.761360 -0.123970
							CHANNELS 3 Zrotation Yrotation Xrotation
							End Site
							{
								OFFSET 0.000000 0.000000 0.000000
							}
						}
					}
				}
				JOINT LeftShoulder
				{
					OFFSET 0.000000 0.000000 0.000000
					CHANNELS 3 Zrotation Yrotation Xrotation
					JOINT LeftArm
					{
						OFFSET 3.362410 1.200890 -0.311210
						CHANNELS 3 Zrotation Yrotation Xrotation
						JOINT LeftForeArm
						{
							OFFSET 4.983000 -0.000000 -0.000000
							CHANNELS 3 Zrotation Yrotation Xrotation
							JOINT LeftHand
							{
								OFFSET 3.483560 -0.000000 -0.000000
								CHANNELS 3 Zrotation Yrotation Xrotation
								JOINT LeftFingerBase
								{
									OFFSET 0.000000 0.000000 0.000000
									CHANNELS 3 Zrotation Yrotation Xrotation
									JOINT LeftHandIndex1
									{
										OFFSET 0.715260 -0.000000 -0.000000
										CHANNELS 3 Zrotation Yrotation Xrotation
										End Site
										{
											OFFSET 0.000000 0.000000 0.000000
										}
									}
								}
								JOINT LThumb
								{
									OFFSET 0.000000 0.000000 0.000000
									CHANNELS 3 Zrotation Yrotation Xrotation
									End Site
									{
										OFFSET 0.000000 0.000000 0.000000
									}
								}
							}
						}
					}
				}
				JOINT RightShoulder
				{
					OFFSET 0.000000 0.000000 0.000000
					CHANNELS 3 Zrotation Yrotation Xrotation
					JOINT RightArm
					{
						OFFSET -3.136600 1.374050 -0.404650
						CHANNELS 3 Zrotation Yrotation Xrotation
						JOINT RightForeArm
						{
							OFFSET -5.241900 -0.000000 -0.000000
							CHANNELS 3 Zrotation Yrotation Xrotation
							JOINT RightHand
							{
								OFFSET -3.444170 -0.000000 -0.000000
								CHANNELS 3 Zrotation Yrotation Xrotation
								JOINT RightFingerBase
								{
									OFFSET 0.000000 0.000000 0.000000
									CHANNELS 3 Zrotation Yrotation Xrotation
									JOINT RightHandIndex1
									{
										OFFSET -0.622530 -0.000000 -0.000000
										CHANNELS 3 Zrotation Yrotation Xrotation
										End Site
										{
											OFFSET 0.000000 0.000000 0.000000
										}
									}
								}
								JOINT RThumb
								{
									OFFSET 0.000000 0.000000 0.000000
									CHANNELS 3 Zrotation Yrotation Xrotation
									End Site
									{
										OFFSET 0.000000 0.000000 0.000000
									}
								}
							}
						}
					}
				}
			}
		}
	}
}
MOTION
Frames: 6
Frame Time: 0.008333
-1.467718 17.282114 0.941876 16.537111 -88.035667 0.984331 -9.378216 -0.146733 0.157216 -12.403753 -7.835966 -19.501763 -2.231279 -0.717339 7.290233 0.942655 5.430294 -3.912727 0.506300 0.000001 -32.423000 10.039940 1.659131 -1.971891 2.222244 2.495714 -40.291653 -1.084933 -3.808774 56.289351 -1.620988 -6.734721 12.326928 -2.153900 0.000000 -74.569800 -6.874576 -1.868333 4.627150 -2.470634 -1.551396 -2.103326 -8.020629 -1.601191 0.038794 10.150053 -3.051629 -0.731844 -4.549889 -0.389161 1.581920 0.000000 0.000000 0.000000 -2.952886 -6.034567 2.027236 -60.683459 -8.451933 8.215045 -3.761806 -18.142228 0.002438 5.102597 -3.061925 -0.140095 -0.089681 0.037796 -0.000000 0.000000 0.000000 0.000000 0.000000 0.000000 0.000000 19.453226 -4.436378 0.465958 75.198791 0.288275 0.735037 2.494008 22.199109 0.009032 -2.422966 11.324962 -0.247580 0.060060 -0.086500 0.000000 0.000000 0.000000 0.000000 0.000000 0.000000 0.000000 
-1.471280 17.283504 0.946675 11.710177 -87.182920 5.369260 -9.462211 -0.266115 0.154120 -12.247566 -8.234454 -18.918922 -2.192930 -0.703435 7.480317 0.929988 5.388626 -3.970108 0.490100 -0.000000 -32.437700 10.003019 1.656662 -2.092715 2.205855 2.155650 -41.123021 -1.214878 -3.960429 58.368419 -1.691067 -6.755088 14.228675 -2.268400 0.000000 -74.446000 -6.917780 -1.975452 4.808666 -2.479687 -1.656823 -2.052145 -8.018206 -1.697657 0.076262 10.046193 -3.196573 -0.762449 -4.559981 -0.389893 1.571985 0.000000 0.000000 0.000000 -3.047902 -5.952838 2.025386 -60.403145 -8.187407 8.018627 -3.789965 -17.703948 0.002614 5.117668 -3.010220 -0.138006 -0.089414 0.034397 -0.000000 0.000000 0.000000 0.000000 0.000000 0.000000 0.000000 19.380380 -4.647663 0.433172 75.308169 -0.297118 0.682610 2.518804 21.922006 0.009240 -2.261082 11.164855 -0.228090 0.059949 -0.081985 0.000000 0.000000 0.000000 0.000000 0.000000 0.000000 0.000000 
-1.474397 17.285311 0.951473 8.179055 -86.390349 8.456504 -9.517110 -0.362303 0.150246 -12.064613 -8.618057 -18.341633 -2.152973 -0.684673 7.661247 0.923524 5.374148 -4.033674 0.475600 -0.000000 -32.463499 9.985564 1.685198 -2.208094 2.223966 1.845102 -41.960072 -1.335466 -4.097120 60.385125 -1.768812 -6.803628 16.070183 -2.388700 -0.000000 -74.253800 -6.916920 -2.060905 4.985392 -2.481006 -1.742569 -2.002253 -8.019051 -1.774751 0.117094 9.939728 -3.340647 -0.797695 -4.570637 -0.390582 1.560753 0.000000 0.000000 0.000000 -3.137109 -5.834026 2.018321 -60.131969 -7.976855 7.861953 -3.817475 -17.252872 0.002781 5.124441 -2.955926 -0.135517 -0.089242 0.031187 -0.000000 0.000000 0.000000 0.000000 0.000000 0.000000 0.000000 19.310131 -4.845010 0.400914 75.410419 -0.867431 0.653525 2.545973 21.645419 0.009454 -2.096755 11.008182 -0.208799 0.059983 -0.077638 0.000000 0.000000 0.000000 0.000000 0.000000 0.000000 0.000000 
-1.477076 17.287559 0.956339 5.354309 -85.639985 10.839807 -9.558736 -0.445103 0.147406 -11.858800 -8.991888 -17.779342 -2.110721 -0.662229 7.845631 0.921981 5.382465 -4.104207 0.462300 0.000000 -32.501600 9.973445 1.731121 -2.319401 2.272285 1.552137 -42.812092 -1.445024 -4.224569 62.338875 -1.850117 -6.879319 17.799153 -2.514800 0.000000 -74.055100 -6.884442 -2.130784 5.155257 -2.476805 -1.814065 -1.956364 -8.022805 -1.838380 0.151041 9.830137 -3.469659 -0.825970 -4.582537 -0.391411 1.551529 0.000000 0.000000 0.000000 -3.220345 -5.731854 2.010229 -59.868886 -7.751163 7.715697 -3.843025 -16.835148 0.002947 5.115445 -2.898168 -0.132527 -0.089041 0.028041 -0.000000 0.000000 0.000000 0.000000 0.000000 0.000000 0.000000 19.241472 -5.017866 0.373284 75.509305 -1.442106 0.604819 2.575227 21.381216 0.009650 -1.918821 10.847899 -0.188706 0.060019 -0.073499 0.000000 0.000000 0.000000 0.000000 0.000000 0.000000 0.000000 
-1.478954 17.290272 0.961395 2.947198 -84.929327 12.804045 -9.593621 -0.520260 0.142526 -11.633163 -9.353989 -17.223811 -2.065867 -0.637072 8.029099 0.924828 5.414237 -4.177802 0.450400 0.000000 -32.554100 9.961343 1.787231 -2.429563 2.347331 1.275732 -43.677662 -1.544277 -4.347419 64.229173 -1.930191 -6.975195 19.366206 -2.642701 0.000000 -73.868600 -6.825766 -2.188020 5.324668 -2.468038 -1.873731 -1.911373 -8.029244 -1.890465 0.184470 9.717260 -3.590958 -0.855917 -4.595484 -0.392257 1.541720 0.000000 0.000000 0.000000 -3.303362 -5.611810 2.001318 -59.608169 -7.561278 7.617033 -3.868484 -16.426629 0.003111 5.087918 -2.839035 -0.129034 -0.088970 0.025067 -0.000000 0.000000 0.000000 0.000000 0.000000 0.000000 0.000000 19.176032 -5.174099 0.347138 75.601046 -2.000964 0.559210 2.605802 21.122664 0.009831 -1.740026 10.689325 -0.169016 0.060118 -0.069554 0.000000 0.000000 0.000000 0.000000 0.000000 0.000000 0.000000 
-1.479980 17.293498 0.966666 0.796612 -84.255154 14.510442 -9.625112 -0.590615 0.134158 -11.388823 -9.701741 -16.672143 -2.018496 -0.609765 8.210984 0.931306 5.466724 -4.252167 0.439800 -0.000000 -32.623400 9.947388 1.848303 -2.539722 2.447127 1.015090 -44.556331 -1.635489 -4.469107 66.055024 -2.004585 -7.083150 20.724817 -2.767000 -0.000000 -73.737700 -6.742589 -2.233692 5.495749 -2.455316 -1.922598 -1.869220 -8.039020 -1.932506 0.208136 9.601119 -3.688977 -0.877176 -4.610100 -0.393266 1.534176 0.000000 0.000000 0.000000 -3.385918 -5.516743 1.995106 -59.347942 -7.350453 7.538863 -3.892946 -16.064207 0.003270 5.032870 -2.773841 -0.124644 -0.088920 0.022153 -0.000000 0.000000 0.000000 0.000000 0.000000 0.000000 0.000000 19.113065 -5.299147 0.326618 75.689262 -2.559026 0.483209 2.637584 20.875499 0.009983 -1.553860 10.530803 -0.149223 0.060184 -0.065855 0.000000 0.000000 0.000000 0.000000 0.000000 0.000000 0.000000 
